Coordinates
nRows=271
nColumns=2
inDegrees=yes
endheader
time	ankle_angle_r	
2.9605	 28.488159	
2.99376	 28.564453	
3.02702	 28.594971	
3.06029	 28.518677	
3.09355	 28.503418	
3.12682	 28.533936	
3.16008	 28.472900	
3.19334	 28.518677	
3.22661	 28.564453	
3.25987	 28.457642	
3.29314	 28.503418	
3.3264	 28.503418	
3.35966	 28.442383	
3.39293	 28.488159	
3.42619	 28.518677	
3.45946	 28.488159	
3.49272	 28.503418	
3.52598	 28.564453	
3.55925	 28.488159	
3.59251	 28.472900	
3.62578	 28.549194	
3.65904	 28.503418	
3.6923	 28.503418	
3.72557	 28.594971	
3.75883	 28.503418	
3.7921	 28.503418	
3.82536	 28.564453	
3.85862	 28.533936	
3.89189	 28.427124	
3.92515	 28.579712	
3.95842	 28.488159	
3.99168	 28.503418	
4.02494	 28.579712	
4.05821	 28.488159	
4.09147	 28.457642	
4.12474	 28.564453	
4.158	 28.503418	
4.19126	 28.549194	
4.22453	 28.564453	
4.25779	 28.533936	
4.29106	 28.488159	
4.32432	 28.549194	
4.35758	 28.533936	
4.39085	 28.518677	
4.42411	 28.518677	
4.45738	 28.503418	
4.49064	 28.564453	
4.5239	 28.564453	
4.55717	 28.549194	
4.59043	 28.610229	
4.6237	 28.594971	
4.65696	 28.503418	
4.69022	 28.610229	
4.72349	 28.625488	
4.75675	 28.533936	
4.79002	 28.625488	
4.82328	 28.594971	
4.85654	 28.533936	
4.88981	 28.610229	
4.92307	 28.610229	
4.95634	 28.533936	
4.9896	 28.610229	
5.02286	 28.579712	
5.05613	 28.533936	
5.08939	 28.625488	
5.12266	 28.579712	
5.15592	 28.564453	
5.18918	 28.594971	
5.22245	 28.549194	
5.25571	 28.579712	
5.28898	 28.625488	
5.32224	 28.594971	
5.3555	 28.594971	
5.38877	 28.640747	
5.42203	 28.686523	
5.4553	 28.549194	
5.48856	 28.640747	
5.52182	 28.625488	
5.55509	 28.549194	
5.58835	 28.625488	
5.62162	 28.610229	
5.65488	 28.594971	
5.68814	 28.610229	
5.72141	 28.594971	
5.75467	 28.549194	
5.78794	 28.640747	
5.8212	 28.656006	
5.85446	 28.579712	
5.88773	 28.656006	
5.92099	 28.686523	
5.95426	 28.579712	
5.98752	 28.625488	
6.02078	 28.594971	
6.05405	 28.518677	
6.08731	 28.640747	
6.12058	 28.671265	
6.15384	 28.564453	
6.1871	 28.640747	
6.22037	 28.594971	
6.25363	 28.549194	
6.2869	 28.594971	
6.32016	 28.564453	
6.35342	 28.549194	
6.38669	 28.594971	
6.41995	 28.579712	
6.45322	 28.549194	
6.48648	 28.610229	
6.51974	 28.640747	
6.55301	 28.549194	
6.58627	 28.579712	
6.61954	 28.610229	
6.6528	 28.549194	
6.68606	 28.579712	
6.71933	 28.625488	
6.75259	 28.533936	
6.78586	 28.625488	
6.81912	 28.594971	
6.85238	 28.549194	
6.88565	 28.625488	
6.91891	 28.640747	
6.95218	 28.564453	
6.98544	 28.594971	
7.0187	 28.549194	
7.05197	 28.503418	
7.08523	 28.625488	
7.1185	 28.472900	
7.15176	 28.503418	
7.18502	 28.533936	
7.21829	 28.518677	
7.25155	 28.518677	
7.28482	 28.594971	
7.31808	 28.549194	
7.35134	 28.488159	
7.38461	 28.625488	
7.41787	 28.488159	
7.45114	 28.533936	
7.4844	 28.594971	
7.51766	 28.503418	
7.55093	 28.549194	
7.58419	 28.564453	
7.61746	 28.503418	
7.65072	 28.503418	
7.68398	 28.549194	
7.71725	 28.472900	
7.75051	 28.503418	
7.78378	 28.610229	
7.81704	 28.503418	
7.8503	 28.549194	
7.88357	 28.564453	
7.91683	 28.457642	
7.9501	 28.518677	
7.98336	 28.549194	
8.01662	 28.442383	
8.04989	 28.472900	
8.08315	 28.564453	
8.11642	 28.488159	
8.14968	 28.472900	
8.18294	 28.610229	
8.21621	 28.488159	
8.24947	 28.488159	
8.28274	 28.594971	
8.316	 28.472900	
8.34926	 28.442383	
8.38253	 28.518677	
8.41579	 28.457642	
8.44906	 28.533936	
8.48232	 28.610229	
8.51558	 28.533936	
8.54885	 28.503418	
8.58211	 28.594971	
8.61538	 28.533936	
8.64864	 28.533936	
8.6819	 28.549194	
8.71517	 28.564453	
8.74843	 28.457642	
8.7817	 28.564453	
8.81496	 28.518677	
8.84822	 28.442383	
8.88149	 28.594971	
8.91475	 28.533936	
8.94802	 28.472900	
8.98128	 28.564453	
9.01454	 28.457642	
9.04781	 28.457642	
9.08107	 28.549194	
9.11434	 28.488159	
9.1476	 28.457642	
9.18086	 28.579712	
9.21413	 28.518677	
9.24739	 28.503418	
9.28066	 28.656006	
9.31392	 28.518677	
9.34718	 28.533936	
9.38045	 28.533936	
9.41371	 28.518677	
9.44698	 28.594971	
9.48024	 28.549194	
9.5135	 28.472900	
9.54677	 28.549194	
9.58003	 28.564453	
9.6133	 28.503418	
9.64656	 28.594971	
9.67982	 28.594971	
9.71309	 28.549194	
9.74635	 28.610229	
9.77962	 28.610229	
9.81288	 28.549194	
9.84614	 28.579712	
9.87941	 28.594971	
9.91267	 28.594971	
9.94594	 28.671265	
9.9792	 28.610229	
10.0125	 28.518677	
10.0457	 28.640747	
10.079	 28.686523	
10.1123	 28.594971	
10.1455	 28.656006	
10.1788	 28.625488	
10.212	 28.625488	
10.2453	 28.594971	
10.2786	 28.564453	
10.3118	 28.533936	
10.3451	 28.625488	
10.3784	 28.625488	
10.4116	 28.533936	
10.4449	 28.625488	
10.4782	 28.610229	
10.5114	 28.579712	
10.5447	 28.610229	
10.578	 28.579712	
10.6112	 28.579712	
10.6445	 28.610229	
10.6777	 28.625488	
10.711	 28.533936	
10.7443	 28.564453	
10.7775	 28.579712	
10.8108	 28.564453	
10.8441	 28.640747	
10.8773	 28.656006	
10.9106	 28.594971	
10.9439	 28.686523	
10.9771	 28.671265	
11.0104	 28.533936	
11.0436	 28.594971	
11.0769	 28.625488	
11.1102	 28.518677	
11.1434	 28.564453	
11.1767	 28.625488	
11.21	 28.549194	
11.2432	 28.625488	
11.2765	 28.610229	
11.3098	 28.518677	
11.343	 28.579712	
11.3763	 28.656006	
11.4096	 28.594971	
11.4428	 28.656006	
11.4761	 28.594971	
11.5093	 28.564453	
11.5426	 28.610229	
11.5759	 28.579712	
11.6091	 28.625488	
11.6424	 28.640747	
11.6757	 28.640747	
11.7089	 28.579712	
11.7422	 28.564453	
11.7755	 28.610229	
11.8087	 28.564453	
11.842	 28.640747	
11.8752	 28.625488	
11.9085	 28.549194	
11.9418	 28.610229	
